<?xml version="1.0" encoding="UTF-8"?>
<svg version="1.1" xmlns="http://www.w3.org/2000/svg" width="400" height="100">
<path d="M0 0 C2.87029869 1.79393668 4.49131638 2.98263276 6 6 C6.50608379 12.67324437 5.83933694 18.96975172 4.4375 25.4921875 C3.99193093 28.04625309 3.92581999 30.41297226 4 33 C4.598125 32.525625 5.19625 32.05125 5.8125 31.5625 C10.22136428 28.41331123 14.78475753 28.50967806 20 29 C23.56313601 30.253696 25.41040228 31.28841655 27.8125 34.1875 C31.05044137 41.8563085 29.64012085 48.90075968 28.125 56.8125 C27.84462891 58.36614258 27.84462891 58.36614258 27.55859375 59.95117188 C26.1860119 67.44196429 26.1860119 67.44196429 25 71 C25.598125 70.484375 26.19625 69.96875 26.8125 69.4375 C27.534375 68.963125 28.25625 68.48875 29 68 C29.99 68.33 30.98 68.66 32 69 C32 69.99 32 70.98 32 72 C25.60937953 74.75151715 21.57138378 75.60589357 15 73 C11.45399197 69.25879887 11.57545098 66.35777342 11.6953125 61.41015625 C12.12676721 56.58118238 12.97599912 51.85372191 13.93212891 47.1027832 C14.81213447 42.64064347 15.14293184 38.54999706 15 34 C10.15060599 34.440854 8.16815893 35.33760827 5 39 C-1.09034914 49.1623849 -2.17240863 61.52395137 -4 73 C-8.95 73 -13.9 73 -19 73 C-17.48241865 60.48617344 -15.31652332 48.12562283 -13.05883789 35.72583008 C-12.43196262 32.28208032 -11.81030975 28.83741755 -11.18945312 25.39257812 C-10.79196626 23.19525828 -10.39419048 20.99799068 -9.99609375 18.80078125 C-9.81066513 17.77479324 -9.62523651 16.74880524 -9.43418884 15.69172668 C-9.26053299 14.73940659 -9.08687714 13.78708649 -8.90795898 12.8059082 C-8.75632797 11.97178909 -8.60469696 11.13766998 -8.44847107 10.27827454 C-8.03219442 8.16355062 -7.54379595 6.08515952 -7 4 C-8.98 4.66 -10.96 5.32 -13 6 C-13 3 -13 3 -11.5625 1.3125 C-7.74117411 -0.64476448 -4.20836151 -0.69764282 0 0 Z M2 34 C3 36 3 36 3 36 Z " fill="#CA4D55" transform="translate(105,3)"/>
<path d="M0 0 C2.87029869 1.79393668 4.49131638 2.98263276 6 6 C6.40578991 11.27526885 5.69097939 15.71783454 4.5 20.875 C3.16068389 26.71014247 2.62877151 32.03284569 3 38 C6.25705887 38 8.91066964 37.97388503 11.4375 35.71484375 C15.72075153 29.62459548 16.95735268 22.15316249 18.54589844 15.00976562 C19.22751263 11.99307315 19.98991266 8.99772765 20.75 6 C21.36875 3.525 21.36875 3.525 22 1 C26.62 0.67 31.24 0.34 36 0 C35.3762156 8.58267209 34.11099765 16.97632589 32.58081055 25.43457031 C32.18725656 27.62635574 31.81123653 29.82071629 31.43554688 32.015625 C29.57884251 42.5368257 27.35868869 52.65275081 19 60 C11.0049229 65.07795438 3.35478954 65.65157738 -6 65 C-9.4778028 63.80075766 -11.25655138 62.67150198 -13.9375 60.25 C-15.53191698 56.87358757 -14.90383604 54.55078446 -14 51 C-12.42114034 48.94061784 -11.30857577 48.15428789 -9 47 C-2.46417875 46.2814742 2.95068372 47.59743467 9 50 C8.67 50.99 8.34 51.98 8 53 C7.43152344 52.855625 6.86304688 52.71125 6.27734375 52.5625 C1.43945478 51.39946826 -2.98717986 50.59079019 -8 51 C-10.28728734 52.83883881 -10.28728734 52.83883881 -10.125 55.625 C-10.08375 56.40875 -10.0425 57.1925 -10 58 C-5.50081724 60.88409151 -2.26570994 61.45631623 2.88671875 60.625 C6.4267539 59.57803951 7.88510277 57.98573727 10 55 C12.3021924 49.83457673 13.40448256 44.59786396 14 39 C13.195625 39.639375 12.39125 40.27875 11.5625 40.9375 C7.58617547 43.56337469 3.72148918 44.180963 -1 44 C-4.67069871 43.09736917 -6.96546405 42.33449016 -9.3203125 39.296875 C-13.91942209 31.1278272 -11.78391464 22.73877106 -10 14 C-9.80921875 13.03449219 -9.6184375 12.06898437 -9.421875 11.07421875 C-8.95464658 8.71471522 -8.48056564 6.35681661 -8 4 C-8.99 4.66 -9.98 5.32 -11 6 C-13.1875 5.625 -13.1875 5.625 -15 5 C-11.21512532 -0.58719596 -6.39073425 -0.84088609 0 0 Z " fill="#CA4D55" transform="translate(301,32)"/>
<path d="M0 0 C2.87095788 2.36854025 4.62614315 4.25415904 5.4140625 7.93359375 C6.28934463 18.32351679 0.69337634 27.0834171 -4 36 C-4.99 36 -5.98 36 -7 36 C-6.80282434 30.67625725 -5.90958545 27.49663205 -3 23 C-0.08301792 18.41717514 1.0909495 15.45696986 1 10 C-0.10992584 6.84547392 -0.8694277 4.7704837 -3.66796875 2.86328125 C-10.49104386 0.33748628 -19.86592543 0.97364833 -26.4375 3.9375 C-36.44824911 9.89073618 -41.45394462 19.0298646 -44.56420898 29.98779297 C-46.08288196 36.0503301 -46.33380766 41.8946415 -46.3125 48.125 C-46.32861328 49.07503906 -46.34472656 50.02507813 -46.36132812 51.00390625 C-46.36640547 58.32543774 -45.44709372 63.25448022 -40.4375 68.875 C-36.68770148 72.14405512 -34.39073188 72.29221196 -29.56640625 72.20703125 C-21.01099923 71.51686904 -14.68427252 68.46125941 -9 62 C-7.01041473 58.78371635 -7.01041473 58.78371635 -6 56 C-5.01 56.33 -4.02 56.66 -3 57 C-3.56059876 63.16658637 -7.08357792 67.39555361 -11.6875 71.25 C-21.63982789 76.5078336 -32.34256463 77.65049477 -43.3125 74.9375 C-50.26665801 72.52898674 -55.93652199 67.52129713 -59.2578125 60.9375 C-64.11024138 48.27010672 -62.19733036 35.52741676 -58 23 C-55.25281287 17.50562573 -51.56197709 13.10577938 -47 9 C-46.071875 8.154375 -45.14375 7.30875 -44.1875 6.4375 C-32.49349943 -2.95893875 -13.79438777 -6.67197939 0 0 Z " fill="#CA4D55" transform="translate(83,10)"/>
<path d="M0 0 C2.18536546 1.79971273 3.12949135 3.1254772 4.125 5.75 C4.8675 4.96625 5.61 4.1825 6.375 3.375 C9.96357082 -0.05045397 12.52044615 -1.53629182 17.5 -1.5625 C21.7050866 -1.45875609 24.56973763 -0.62017492 28.125 1.75 C31.7611946 5.76235266 32.3946624 9.4488159 32.359375 14.8125 C32.00379343 19.26912229 31.11365665 23.62024162 30.19238281 27.98901367 C29.36833956 31.98053435 28.97293337 35.67588142 29.125 39.75 C29.74375 39.399375 30.3625 39.04875 31 38.6875 C31.70125 38.378125 32.4025 38.06875 33.125 37.75 C34.115 38.245 34.115 38.245 35.125 38.75 C34.16237082 41.24570527 33.68042989 42.48981899 31.20703125 43.6484375 C25.96697003 44.74876017 22.16134837 45.06672025 17.125 42.75 C14.0128643 39.33668987 13.93275107 36.46563305 13.99389648 31.96142578 C14.25222947 27.60392079 15.19525107 23.37551499 16.05859375 19.10546875 C16.99437548 14.23049156 17.25922412 9.71629245 17.125 4.75 C15.38924351 3.87563582 15.38924351 3.87563582 13.125 3.75 C7.67799054 6.88203044 5.20782579 12.11679256 3.46191406 17.97485352 C2.92399091 20.24671519 2.44701273 22.52107387 2 24.8125 C1.68693767 26.34547048 1.37185974 27.87803083 1.0546875 29.41015625 C0.82990723 30.50094482 0.82990723 30.50094482 0.60058594 31.61376953 C-0.08754253 34.70469563 -0.96487431 37.71759006 -1.875 40.75 C-1.276875 40.234375 -0.67875 39.71875 -0.0625 39.1875 C0.659375 38.713125 1.38125 38.23875 2.125 37.75 C3.61 38.245 3.61 38.245 5.125 38.75 C3.375 42.625 3.375 42.625 1.125 43.75 C-3.61849584 44.26212964 -7.60907859 44.37004314 -11.9375 42.25 C-15.27638101 37.94176644 -15.09171796 33.60412764 -14.48120117 28.38085938 C-13.85759639 24.49211356 -13.1642009 20.6204005 -12.4375 16.75 C-12.19097945 15.38951778 -11.94552748 14.02884148 -11.70117188 12.66796875 C-11.10290808 9.35992188 -10.49390779 6.05423571 -9.875 2.75 C-10.865 3.41 -11.855 4.07 -12.875 4.75 C-13.865 4.75 -14.855 4.75 -15.875 4.75 C-15.54512361 2.27592708 -15.29527913 1.0862233 -13.3125 -0.5 C-8.58065225 -1.95595315 -4.48028124 -1.94794836 0 0 Z " fill="#CA4D55" transform="translate(354.875,33.25)"/>
<path d="M0 0 C3.77393354 0.84896923 5.57713897 2.72220685 8.22265625 5.5 C8.55265625 6.16 8.88265625 6.82 9.22265625 7.5 C9.77953125 6.71625 10.33640625 5.9325 10.91015625 5.125 C13.86365724 1.77237726 15.88715652 0.7858898 20.296875 0.24609375 C25.02423566 -0.00271471 28.79279821 0.45628113 32.77734375 3.125 C35.62000913 5.82937355 36.62988444 8.66590151 37.22265625 12.5 C37.40641462 21.32040189 36.2401218 34.46506889 32.22265625 42.5 C32.82078125 41.984375 33.41890625 41.46875 34.03515625 40.9375 C34.75703125 40.463125 35.47890625 39.98875 36.22265625 39.5 C37.21265625 39.83 38.20265625 40.16 39.22265625 40.5 C39.22265625 41.49 39.22265625 42.48 39.22265625 43.5 C32.83203578 46.25151715 28.79404003 47.10589357 22.22265625 44.5 C18.66007251 40.7494818 18.79806628 37.80247379 18.91796875 32.83984375 C19.33498422 28.26871267 20.17534274 23.81715504 21.15478516 19.33496094 C22.1599234 14.5966224 22.35112332 10.31216235 22.22265625 5.5 C17.37480694 5.94071357 15.38482035 6.83188964 12.22265625 10.5 C6.58668685 20.19911013 5.12644639 31.61658565 3.22265625 42.5 C3.82078125 41.984375 4.41890625 41.46875 5.03515625 40.9375 C5.75703125 40.463125 6.47890625 39.98875 7.22265625 39.5 C8.70765625 39.995 8.70765625 39.995 10.22265625 40.5 C8.47265625 44.375 8.47265625 44.375 6.22265625 45.5 C1.30268697 46.03118252 -2.55061972 46.25105553 -6.83984375 43.625 C-9.7497784 40.43345877 -10.02309812 38.38334558 -9.96875 34.08984375 C-9.55510922 28.49303081 -8.35187083 23.00041698 -7.27734375 17.5 C-7.03886719 16.24832031 -6.80039063 14.99664062 -6.5546875 13.70703125 C-5.9687482 10.63670932 -5.37613257 7.56783718 -4.77734375 4.5 C-5.76734375 5.16 -6.75734375 5.82 -7.77734375 6.5 C-9.96484375 6.125 -9.96484375 6.125 -11.77734375 5.5 C-8.20305533 0.88801494 -5.64346716 -0.30148739 0 0 Z " fill="#CA4D55" transform="translate(192.77734375,31.5)"/>
<path d="M0 0 C2.75329021 1.79562405 4.52627461 3.05254922 6 6 C8.09317929 18.1274924 2.93728094 29.37143208 -1.15209961 40.54907227 C-1.89226916 42.68859489 -2.49415875 44.79517448 -3 47 C-3.99 47 -4.98 47 -6 47 C-5.44070769 39.17778503 -3.31743532 32.79728817 -0.43945312 25.54882812 C1.7237833 19.7846764 3.14784698 14.16993149 2 8 C0.56534655 5.74508917 0.56534655 5.74508917 -1 4 C-2.6670727 11.14479849 -3.94574226 18.31143402 -5.12890625 25.55078125 C-5.32346909 26.72714645 -5.51803192 27.90351166 -5.7184906 29.11552429 C-6.33550519 32.84746711 -6.94928033 36.57993188 -7.5625 40.3125 C-8.17958861 44.06286984 -8.79741238 47.81311276 -9.41722107 51.56303406 C-9.80174331 53.88991914 -10.18466483 56.21706944 -10.56581116 58.54450989 C-10.73946701 59.59627914 -10.91312286 60.6480484 -11.09204102 61.73168945 C-11.24367203 62.65496536 -11.39530304 63.57824127 -11.55152893 64.52949524 C-11.94885555 66.71825918 -12.4297799 68.85069676 -13 71 C-7.78539349 67.66844584 -6.12984211 63.56852575 -4 58 C-2.515 58.495 -2.515 58.495 -1 59 C-1.400158 64.46882606 -3.42311318 67.98892461 -7 72 C-11.47862258 74.98574839 -15.7549453 74.7044453 -21 74 C-24.1875 72.1875 -24.1875 72.1875 -26 69 C-27.52829703 59.30346883 -24.60965559 48.84578611 -22.80175781 39.34790039 C-22.25113864 36.44350605 -21.72226194 33.53572387 -21.1953125 30.62695312 C-20.84504866 28.74975722 -20.49352796 26.8727953 -20.140625 24.99609375 C-19.98627991 24.14164169 -19.83193481 23.28718964 -19.6729126 22.40684509 C-18.22885026 14.95787959 -16.39933228 5.74789169 -10 1 C-6.39427296 -0.20190901 -3.7897565 -0.32670315 0 0 Z " fill="#CA4D55" transform="translate(285,3)"/>
<path d="M0 0 C3.19159828 2.77530285 4.10973763 4.33119488 4.78515625 8.4140625 C4.99820951 13.36060347 3.72349394 16.46295185 0.625 20.25 C-5.17301661 24.62014685 -14.07367005 25.5 -21.125 25.5 C-20.96385425 32.1444849 -20.96385425 32.1444849 -18.4375 38.125 C-15.36098434 39.95427958 -13.66268623 39.99527607 -10.125 39.5 C-3.79115761 37.52067425 -1.34087264 32.93961437 1.875 27.5 C2.865 27.83 3.855 28.16 4.875 28.5 C2.53250505 34.78774961 -0.08846277 38.61059906 -5.9375 42.25 C-13.15238487 45.07936662 -19.81918163 44.98006878 -27.125 42.5 C-31.40841156 40.07625889 -33.62666085 37.16451283 -35.125 32.5 C-36.04194841 24.08074641 -35.45740261 15.32992675 -30.54296875 8.20703125 C-23.10036444 -0.69490724 -11.28174373 -5.39148595 0 0 Z M-17.125 8.5 C-19.41630838 12.77710898 -20.53915402 16.69606293 -21.125 21.5 C-13.91319705 21.89337107 -7.5957785 21.01631441 -1.625 16.6875 C0.32066976 13.85006494 0.80479299 11.9401434 0.875 8.5 C-0.85844875 4.77156036 -0.85844875 4.77156036 -4.125 2.5 C-10.18054688 1.5142133 -13.321166 4.11836843 -17.125 8.5 Z " fill="#CA4D55" transform="translate(174.125,33.5)"/>
<path d="M0 0 C-0.83235434 8.91671545 -2.5662141 17.61761811 -4.27148438 26.40234375 C-4.49255859 27.56378906 -4.71363281 28.72523437 -4.94140625 29.921875 C-5.14451416 30.96956055 -5.34762207 32.01724609 -5.55688477 33.09667969 C-5.96772005 35.78849967 -6.08478188 38.28322567 -6 41 C-4.68 40.34 -3.36 39.68 -2 39 C-1.34 39.66 -0.68 40.32 0 41 C-1.3125 43 -1.3125 43 -4 45 C-9.35742192 45.93136719 -13.56977979 45.97254974 -18.125 42.875 C-21.53762958 37.64230132 -21.0882502 33.04742792 -20.00390625 27.0703125 C-19.77509766 25.78125 -19.54628906 24.4921875 -19.31054688 23.1640625 C-19.06141479 21.81766819 -18.8120631 20.47131449 -18.5625 19.125 C-18.31614201 17.75537265 -18.07069022 16.38558197 -17.82617188 15.015625 C-17.2263373 11.6753697 -16.61732733 8.33705891 -16 5 C-17.32 4.67 -18.64 4.34 -20 4 C-20 3.01 -20 2.02 -20 1 C-17.4167588 0.83178895 -14.83342301 0.66537483 -12.25 0.5 C-11.52039063 0.45230469 -10.79078125 0.40460937 -10.0390625 0.35546875 C-6.68189836 0.14183103 -3.36563724 0 0 0 Z " fill="#CA4D55" transform="translate(256,32)"/>
<path d="M0 0 C2.7852003 2.59952028 3.81955436 5.21064149 4 9 C3 12.1875 3 12.1875 1 15 C-3.0783171 16.92373448 -5.01806859 17.33348614 -9.3125 15.875 C-13.21126761 13.15492958 -13.21126761 13.15492958 -14 10 C-13.68041237 3.92783505 -13.68041237 3.92783505 -11.625 1.125 C-7.69799847 -1.59369337 -4.46485186 -1.03648347 0 0 Z " fill="#CB4D55" transform="translate(256,8)"/>
</svg>
